<svg width="41" height="41" viewBox="0 0 41 41" fill="none" xmlns="http://www.w3.org/2000/svg">
<rect x="1" y="1" width="39" height="39" rx="1" fill="url(#paint0_linear_1253_176108)"/>
<g clip-path="url(#clip0_1253_176108)">
<rect x="-6.06592" y="14.1473" width="5.56" height="5.56" transform="rotate(-45 -6.06592 14.1473)" stroke="#130A2A" stroke-opacity="0.04"/>
<rect x="-2.92627" y="3.14465" width="5.56" height="5.56" transform="rotate(-45 -2.92627 3.14465)" stroke="#130A2A" stroke-opacity="0.04"/>
<rect x="-2.92627" y="11.0077" width="5.56" height="5.56" transform="rotate(-45 -2.92627 11.0077)" stroke="#130A2A" stroke-opacity="0.04"/>
<rect x="1.00488" y="7.07617" width="5.56" height="5.56" transform="rotate(-45 1.00488 7.07617)" stroke="#130A2A" stroke-opacity="0.04"/>
<rect x="0.213379" y="0.00512695" width="5.56" height="5.56" transform="rotate(-45 0.213379 0.00512695)" stroke="#130A2A" stroke-opacity="0.04"/>
<rect x="4.14502" y="3.93665" width="5.56" height="5.56" transform="rotate(-45 4.14502 3.93665)" stroke="#130A2A" stroke-opacity="0.04"/>
<rect x="8.07617" y="0.00512695" width="5.56" height="5.56" transform="rotate(-45 8.07617 0.00512695)" stroke="#130A2A" stroke-opacity="0.04"/>
<rect x="-5.27441" y="29.0814" width="5.56" height="5.56" transform="rotate(-45 -5.27441 29.0814)" stroke="#130A2A" stroke-opacity="0.04"/>
<rect x="-6.06592" y="22.0103" width="5.56" height="5.56" transform="rotate(-45 -6.06592 22.0103)" stroke="#130A2A" stroke-opacity="0.04"/>
<rect x="-2.13428" y="18.0788" width="5.56" height="5.56" transform="rotate(-45 -2.13428 18.0788)" stroke="#130A2A" stroke-opacity="0.04"/>
<rect x="-2.13428" y="25.9418" width="5.56" height="5.56" transform="rotate(-45 -2.13428 25.9418)" stroke="#130A2A" stroke-opacity="0.04"/>
<rect x="1.79688" y="22.0103" width="5.56" height="5.56" transform="rotate(-45 1.79688 22.0103)" stroke="#130A2A" stroke-opacity="0.04"/>
<rect x="1.00488" y="14.9392" width="5.56" height="5.56" transform="rotate(-45 1.00488 14.9392)" stroke="#130A2A" stroke-opacity="0.04"/>
<rect x="4.93652" y="11.0077" width="5.56" height="5.56" transform="rotate(-45 4.93652 11.0077)" stroke="#130A2A" stroke-opacity="0.04"/>
<rect x="4.93652" y="18.8707" width="5.56" height="5.56" transform="rotate(-45 4.93652 18.8707)" stroke="#130A2A" stroke-opacity="0.04"/>
<rect x="8.86768" y="14.9392" width="5.56" height="5.56" transform="rotate(-45 8.86768 14.9392)" stroke="#130A2A" stroke-opacity="0.04"/>
<rect x="8.07617" y="7.86816" width="5.56" height="5.56" transform="rotate(-45 8.07617 7.86816)" stroke="#130A2A" stroke-opacity="0.04"/>
<rect x="12.0078" y="3.93665" width="5.56" height="5.56" transform="rotate(-45 12.0078 3.93665)" stroke="#130A2A" stroke-opacity="0.04"/>
<rect x="12.0078" y="11.7997" width="5.56" height="5.56" transform="rotate(-45 12.0078 11.7997)" stroke="#130A2A" stroke-opacity="0.04"/>
<rect x="15.939" y="7.86816" width="5.56" height="5.56" transform="rotate(-45 15.939 7.86816)" stroke="#130A2A" stroke-opacity="0.04"/>
<rect x="15.147" y="0.797119" width="5.56" height="5.56" transform="rotate(-45 15.147 0.797119)" stroke="#130A2A" stroke-opacity="0.04"/>
<rect x="19.0786" y="4.72864" width="5.56" height="5.56" transform="rotate(-45 19.0786 4.72864)" stroke="#130A2A" stroke-opacity="0.04"/>
<rect x="23.0098" y="0.797119" width="5.56" height="5.56" transform="rotate(-45 23.0098 0.797119)" stroke="#130A2A" stroke-opacity="0.04"/>
<rect x="26.1499" y="-2.34247" width="5.56" height="5.56" transform="rotate(-45 26.1499 -2.34247)" stroke="#130A2A" stroke-opacity="0.04"/>
<rect x="-5.27393" y="36.9444" width="5.56" height="5.56" transform="rotate(-45 -5.27393 36.9444)" stroke="#130A2A" stroke-opacity="0.04"/>
<rect x="-1.34229" y="33.0129" width="5.56" height="5.56" transform="rotate(-45 -1.34229 33.0129)" stroke="#130A2A" stroke-opacity="0.04"/>
<rect x="-1.34229" y="40.8759" width="5.56" height="5.56" transform="rotate(-45 -1.34229 40.8759)" stroke="#130A2A" stroke-opacity="0.04"/>
<rect x="2.58887" y="36.9444" width="5.56" height="5.56" transform="rotate(-45 2.58887 36.9444)" stroke="#130A2A" stroke-opacity="0.04"/>
<rect x="1.79736" y="29.8734" width="5.56" height="5.56" transform="rotate(-45 1.79736 29.8734)" stroke="#130A2A" stroke-opacity="0.04"/>
<rect x="5.729" y="25.9418" width="5.56" height="5.56" transform="rotate(-45 5.729 25.9418)" stroke="#130A2A" stroke-opacity="0.04"/>
<rect x="5.729" y="33.8049" width="5.56" height="5.56" transform="rotate(-45 5.729 33.8049)" stroke="#130A2A" stroke-opacity="0.04"/>
<rect x="9.66016" y="29.8734" width="5.56" height="5.56" transform="rotate(-45 9.66016 29.8734)" stroke="#130A2A" stroke-opacity="0.04"/>
<rect x="8.86816" y="22.8022" width="5.56" height="5.56" transform="rotate(-45 8.86816 22.8022)" stroke="#130A2A" stroke-opacity="0.04"/>
<rect x="12.7998" y="18.8707" width="5.56" height="5.56" transform="rotate(-45 12.7998 18.8707)" stroke="#130A2A" stroke-opacity="0.04"/>
<rect x="12.7998" y="26.7338" width="5.56" height="5.56" transform="rotate(-45 12.7998 26.7338)" stroke="#130A2A" stroke-opacity="0.04"/>
<rect x="16.731" y="22.8022" width="5.56" height="5.56" transform="rotate(-45 16.731 22.8022)" stroke="#130A2A" stroke-opacity="0.04"/>
<rect x="15.9395" y="15.7312" width="5.56" height="5.56" transform="rotate(-45 15.9395 15.7312)" stroke="#130A2A" stroke-opacity="0.04"/>
<rect x="19.8711" y="11.7997" width="5.56" height="5.56" transform="rotate(-45 19.8711 11.7997)" stroke="#130A2A" stroke-opacity="0.04"/>
<rect x="19.8711" y="19.6627" width="5.56" height="5.56" transform="rotate(-45 19.8711 19.6627)" stroke="#130A2A" stroke-opacity="0.04"/>
<rect x="23.8022" y="15.7312" width="5.56" height="5.56" transform="rotate(-45 23.8022 15.7312)" stroke="#130A2A" stroke-opacity="0.04"/>
<rect x="23.0103" y="8.66016" width="5.56" height="5.56" transform="rotate(-45 23.0103 8.66016)" stroke="#130A2A" stroke-opacity="0.04"/>
<rect x="26.9419" y="4.72864" width="5.56" height="5.56" transform="rotate(-45 26.9419 4.72864)" stroke="#130A2A" stroke-opacity="0.04"/>
<rect x="26.9419" y="12.5917" width="5.56" height="5.56" transform="rotate(-45 26.9419 12.5917)" stroke="#130A2A" stroke-opacity="0.04"/>
<rect x="30.873" y="8.66016" width="5.56" height="5.56" transform="rotate(-45 30.873 8.66016)" stroke="#130A2A" stroke-opacity="0.04"/>
<rect x="30.0815" y="1.58905" width="5.56" height="5.56" transform="rotate(-45 30.0815 1.58905)" stroke="#130A2A" stroke-opacity="0.04"/>
<rect x="34.0132" y="-2.34247" width="5.56" height="5.56" transform="rotate(-45 34.0132 -2.34247)" stroke="#130A2A" stroke-opacity="0.04"/>
<rect x="34.0132" y="5.52057" width="5.56" height="5.56" transform="rotate(-45 34.0132 5.52057)" stroke="#130A2A" stroke-opacity="0.04"/>
<rect x="37.9443" y="1.58905" width="5.56" height="5.56" transform="rotate(-45 37.9443 1.58905)" stroke="#130A2A" stroke-opacity="0.04"/>
<rect x="6.52051" y="40.8759" width="5.56" height="5.56" transform="rotate(-45 6.52051 40.8759)" stroke="#130A2A" stroke-opacity="0.04"/>
<rect x="9.66016" y="37.7364" width="5.56" height="5.56" transform="rotate(-45 9.66016 37.7364)" stroke="#130A2A" stroke-opacity="0.04"/>
<rect x="13.5918" y="33.8049" width="5.56" height="5.56" transform="rotate(-45 13.5918 33.8049)" stroke="#130A2A" stroke-opacity="0.04"/>
<rect x="13.5918" y="41.6679" width="5.56" height="5.56" transform="rotate(-45 13.5918 41.6679)" stroke="#130A2A" stroke-opacity="0.04"/>
<rect x="17.5229" y="37.7364" width="5.56" height="5.56" transform="rotate(-45 17.5229 37.7364)" stroke="#130A2A" stroke-opacity="0.04"/>
<rect x="16.731" y="30.6653" width="5.56" height="5.56" transform="rotate(-45 16.731 30.6653)" stroke="#130A2A" stroke-opacity="0.04"/>
<rect x="20.6626" y="26.7338" width="5.56" height="5.56" transform="rotate(-45 20.6626 26.7338)" stroke="#130A2A" stroke-opacity="0.04"/>
<rect x="20.6626" y="34.5968" width="5.56" height="5.56" transform="rotate(-45 20.6626 34.5968)" stroke="#130A2A" stroke-opacity="0.04"/>
<rect x="24.5938" y="30.6653" width="5.56" height="5.56" transform="rotate(-45 24.5938 30.6653)" stroke="#130A2A" stroke-opacity="0.04"/>
<rect x="23.8022" y="23.5942" width="5.56" height="5.56" transform="rotate(-45 23.8022 23.5942)" stroke="#130A2A" stroke-opacity="0.04"/>
<rect x="27.7339" y="19.6627" width="5.56" height="5.56" transform="rotate(-45 27.7339 19.6627)" stroke="#130A2A" stroke-opacity="0.04"/>
<rect x="27.7339" y="27.5258" width="5.56" height="5.56" transform="rotate(-45 27.7339 27.5258)" stroke="#130A2A" stroke-opacity="0.04"/>
<rect x="31.665" y="23.5942" width="5.56" height="5.56" transform="rotate(-45 31.665 23.5942)" stroke="#130A2A" stroke-opacity="0.04"/>
<rect x="30.873" y="16.5232" width="5.56" height="5.56" transform="rotate(-45 30.873 16.5232)" stroke="#130A2A" stroke-opacity="0.04"/>
<rect x="34.8047" y="12.5917" width="5.56" height="5.56" transform="rotate(-45 34.8047 12.5917)" stroke="#130A2A" stroke-opacity="0.04"/>
<rect x="34.8047" y="20.4547" width="5.56" height="5.56" transform="rotate(-45 34.8047 20.4547)" stroke="#130A2A" stroke-opacity="0.04"/>
<rect x="38.7358" y="16.5232" width="5.56" height="5.56" transform="rotate(-45 38.7358 16.5232)" stroke="#130A2A" stroke-opacity="0.04"/>
<rect x="37.9443" y="9.45209" width="5.56" height="5.56" transform="rotate(-45 37.9443 9.45209)" stroke="#130A2A" stroke-opacity="0.04"/>
<rect x="21.4551" y="41.6678" width="5.56" height="5.56" transform="rotate(-45 21.4551 41.6678)" stroke="#130A2A" stroke-opacity="0.04"/>
<rect x="24.5942" y="38.5283" width="5.56" height="5.56" transform="rotate(-45 24.5942 38.5283)" stroke="#130A2A" stroke-opacity="0.04"/>
<rect x="28.5259" y="34.5967" width="5.56" height="5.56" transform="rotate(-45 28.5259 34.5967)" stroke="#130A2A" stroke-opacity="0.04"/>
<rect x="28.5259" y="42.4598" width="5.56" height="5.56" transform="rotate(-45 28.5259 42.4598)" stroke="#130A2A" stroke-opacity="0.04"/>
<rect x="32.457" y="38.5283" width="5.56" height="5.56" transform="rotate(-45 32.457 38.5283)" stroke="#130A2A" stroke-opacity="0.04"/>
<rect x="31.6655" y="31.4572" width="5.56" height="5.56" transform="rotate(-45 31.6655 31.4572)" stroke="#130A2A" stroke-opacity="0.04"/>
<rect x="35.5972" y="27.5257" width="5.56" height="5.56" transform="rotate(-45 35.5972 27.5257)" stroke="#130A2A" stroke-opacity="0.04"/>
<rect x="35.5972" y="35.3887" width="5.56" height="5.56" transform="rotate(-45 35.5972 35.3887)" stroke="#130A2A" stroke-opacity="0.04"/>
<rect x="39.5283" y="31.4572" width="5.56" height="5.56" transform="rotate(-45 39.5283 31.4572)" stroke="#130A2A" stroke-opacity="0.04"/>
<rect x="38.7363" y="24.3862" width="5.56" height="5.56" transform="rotate(-45 38.7363 24.3862)" stroke="#130A2A" stroke-opacity="0.04"/>
<rect x="36.3887" y="42.4598" width="5.56" height="5.56" transform="rotate(-45 36.3887 42.4598)" stroke="#130A2A" stroke-opacity="0.04"/>
<rect x="39.5283" y="39.3203" width="5.56" height="5.56" transform="rotate(-45 39.5283 39.3203)" stroke="#130A2A" stroke-opacity="0.04"/>
</g>
<defs>
<linearGradient id="paint0_linear_1253_176108" x1="21" y1="1" x2="21" y2="40" gradientUnits="userSpaceOnUse">
<stop stop-color="#7DD6F2"/>
<stop offset="1" stop-color="#625EDC"/>
</linearGradient>
<clipPath id="clip0_1253_176108">
<rect x="2" y="2" width="37" height="37" rx="1" fill="white"/>
</clipPath>
</defs>
</svg>
